<svg width="2308" height="2917" viewBox="0 0 2308 2917" fill="none" xmlns="http://www.w3.org/2000/svg">
<path d="M1154 2307.29C1791.14 2307.29 2307.65 1790.79 2307.65 1153.65C2307.65 516.505 1791.14 0 1154 0C516.859 0 0.353516 516.505 0.353516 1153.65C0.353516 1790.79 516.859 2307.29 1154 2307.29Z" fill="#1F242D"/>
<path d="M2043.25 678.779H1821.15C1812.59 678.779 1805.66 671.841 1805.66 663.283C1805.66 654.726 1812.59 647.787 1821.15 647.787H2043.25C2051.81 647.787 2058.74 654.726 2058.74 663.283C2058.74 671.84 2051.81 678.779 2043.25 678.779Z" fill="#00EEFF"/>
<path d="M1606.8 678.779H697.423C688.864 678.779 681.93 671.841 681.93 663.283C681.93 654.726 688.864 647.787 697.423 647.787H1606.8C1615.36 647.787 1622.29 654.726 1622.29 663.283C1622.29 671.84 1615.36 678.779 1606.8 678.779Z" fill="#00EEFF"/>
<path d="M553.967 678.779H302.6C294.041 678.779 287.107 671.841 287.107 663.283C287.107 654.726 294.041 647.787 302.6 647.787H553.967C562.527 647.787 569.46 654.726 569.46 663.283C569.46 671.84 562.526 678.779 553.967 678.779Z" fill="#00EEFF"/>
<path d="M2043.25 807.907H1852.14C1843.58 807.907 1836.65 800.969 1836.65 792.411C1836.65 783.853 1843.58 776.915 1852.14 776.915H2043.25C2051.81 776.915 2058.74 783.853 2058.74 792.411C2058.74 800.969 2051.81 807.907 2043.25 807.907Z" fill="#00EEFF"/>
<path d="M1735.06 807.907H593.013C584.453 807.907 577.52 800.969 577.52 792.411C577.52 783.853 584.454 776.915 593.013 776.915H1735.06C1743.62 776.915 1750.56 783.853 1750.56 792.411C1750.56 800.969 1743.62 807.907 1735.06 807.907Z" fill="#00EEFF"/>
<path d="M434.517 807.907H302.599C294.04 807.907 287.105 800.969 287.105 792.411C287.105 783.853 294.04 776.915 302.599 776.915H434.517C443.076 776.915 450.01 783.853 450.01 792.411C450.01 800.969 443.077 807.907 434.517 807.907Z" fill="#00EEFF"/>
<path d="M2043.25 937.035H302.599C294.04 937.035 287.105 930.097 287.105 921.539C287.105 912.982 294.04 906.043 302.599 906.043H2043.25C2051.81 906.043 2058.74 912.981 2058.74 921.539C2058.74 930.097 2051.81 937.035 2043.25 937.035Z" fill="#00EEFF"/>
<path d="M2043.25 1066.16H571.188C562.628 1066.16 555.695 1059.22 555.695 1050.67C555.695 1042.11 562.629 1035.17 571.188 1035.17H2043.25C2051.81 1035.17 2058.74 1042.11 2058.74 1050.67C2058.74 1059.23 2051.81 1066.16 2043.25 1066.16Z" fill="#00EEFF"/>
<path d="M434.517 1066.16H302.599C294.04 1066.16 287.105 1059.22 287.105 1050.67C287.105 1042.11 294.04 1035.17 302.599 1035.17H434.517C443.076 1035.17 450.01 1042.11 450.01 1050.67C450.01 1059.23 443.077 1066.16 434.517 1066.16Z" fill="#00EEFF"/>
<path d="M2043.25 1195.29H1932.2C1923.64 1195.29 1916.71 1188.35 1916.71 1179.8C1916.71 1171.24 1923.64 1164.3 1932.2 1164.3H2043.25C2051.81 1164.3 2058.74 1171.24 2058.74 1179.8C2058.74 1188.35 2051.81 1195.29 2043.25 1195.29Z" fill="#00EEFF"/>
<path d="M1821.15 1195.29H302.599C294.04 1195.29 287.105 1188.35 287.105 1179.8C287.105 1171.24 294.04 1164.3 302.599 1164.3H1821.15C1829.71 1164.3 1836.64 1171.24 1836.64 1179.8C1836.64 1188.35 1829.71 1195.29 1821.15 1195.29Z" fill="#00EEFF"/>
<path d="M2043.25 1324.42H302.599C294.04 1324.42 287.105 1317.48 287.105 1308.93C287.105 1300.37 294.04 1293.43 302.599 1293.43H2043.25C2051.81 1293.43 2058.74 1300.37 2058.74 1308.93C2058.74 1317.48 2051.81 1324.42 2043.25 1324.42Z" fill="#00EEFF"/>
<path d="M2043.25 1453.55H1917.92C1909.36 1453.55 1902.42 1446.61 1902.42 1438.05C1902.42 1429.5 1909.36 1422.56 1917.92 1422.56H2043.25C2051.81 1422.56 2058.74 1429.5 2058.74 1438.05C2058.74 1446.61 2051.81 1453.55 2043.25 1453.55Z" fill="#00EEFF"/>
<path d="M1786.36 1453.55H640.056C631.496 1453.55 624.562 1446.61 624.562 1438.05C624.562 1429.5 631.497 1422.56 640.056 1422.56H1786.36C1794.92 1422.56 1801.86 1429.5 1801.86 1438.05C1801.86 1446.61 1794.92 1453.55 1786.36 1453.55Z" fill="#00EEFF"/>
<path d="M450.666 1453.55H302.6C294.041 1453.55 287.107 1446.61 287.107 1438.05C287.107 1429.5 294.041 1422.56 302.6 1422.56H450.666C459.226 1422.56 466.159 1429.5 466.159 1438.05C466.159 1446.61 459.225 1453.55 450.666 1453.55Z" fill="#00EEFF"/>
<path d="M2043.25 1582.68H1763.64C1755.08 1582.68 1748.15 1575.74 1748.15 1567.18C1748.15 1558.63 1755.08 1551.69 1763.64 1551.69H2043.25C2051.81 1551.69 2058.74 1558.63 2058.74 1567.18C2058.74 1575.74 2051.81 1582.68 2043.25 1582.68Z" fill="#00EEFF"/>
<path d="M1545.68 1582.68H302.599C294.04 1582.68 287.105 1575.74 287.105 1567.18C287.105 1558.63 294.04 1551.69 302.599 1551.69H1545.67C1554.23 1551.69 1561.17 1558.63 1561.17 1567.18C1561.17 1575.74 1554.23 1582.68 1545.68 1582.68Z" fill="#00EEFF"/>
<g opacity="0.3">
<path d="M59.9583 2845.65C427.294 2940.52 1880.6 2940.52 2247.93 2845.65C2281.91 2836.87 2273.62 2797.51 2237.84 2797.51H70.0523C34.2693 2797.51 25.9793 2836.87 59.9583 2845.65Z" fill="#000072"/>
</g>
<path d="M162.787 2792.26C204.086 2784.19 245.385 2782.05 286.683 2781.17C327.979 2780.04 369.278 2780.64 410.577 2781.25C451.876 2781.73 493.172 2781.85 534.471 2781.77H658.367H1153.95H1649.53H1897.32L1959.26 2781.76C1979.91 2781.77 2000.56 2781.05 2021.21 2780.72C2062.51 2780.53 2103.81 2781 2145.1 2792.26C2148 2793.05 2149.71 2796.04 2148.92 2798.93C2148.4 2800.86 2146.89 2802.25 2145.1 2802.75C2103.81 2814 2062.51 2814.48 2021.21 2814.29C2000.56 2813.96 1979.91 2813.24 1959.26 2813.25L1897.32 2813.23H1649.53H1153.95H658.367H534.471C493.172 2813.16 451.876 2813.28 410.577 2813.75C369.278 2814.37 327.979 2814.97 286.683 2813.84C245.384 2812.96 204.085 2810.82 162.787 2802.75C159.891 2802.18 158.004 2799.37 158.568 2796.48C158.998 2794.28 160.719 2792.67 162.787 2792.26Z" fill="#000072"/>
<path d="M1664.79 2685.52L1671.31 2684.74C1853.27 2663.11 1977.82 2490.5 1940.98 2311L1872.62 1977.84C1841.43 1825.81 1707.62 1716.68 1552.42 1716.68H1154.65H1165.9H768.13C612.931 1716.68 479.13 1825.81 447.933 1977.84L379.57 2311C342.738 2490.5 467.285 2663.11 649.243 2684.74L655.767 2685.52H1664.79Z" fill="#4D5A6A"/>
<path d="M1664.93 2688.02H655.769L648.953 2687.23C561.526 2676.83 481.844 2629.93 430.33 2558.53C378.821 2487.14 359.427 2396.74 377.122 2310.5L445.481 1977.34C476.775 1824.85 612.468 1714.18 768.132 1714.18H1552.42C1708.09 1714.18 1843.78 1824.85 1875.07 1977.34L1943.43 2310.5C1961.13 2396.74 1941.73 2487.15 1890.22 2558.54C1838.71 2629.93 1759.02 2676.84 1671.6 2687.23L1664.93 2688.02ZM768.133 1719.18C614.832 1719.18 481.195 1828.17 450.384 1978.34L382.025 2311.51C364.608 2396.37 383.69 2485.35 434.388 2555.61C485.081 2625.87 563.504 2672.03 649.539 2682.26L656.062 2683.04L1664.64 2683.02L1671.02 2682.26C1757.05 2672.03 1835.47 2625.87 1886.16 2555.61C1936.86 2485.35 1955.95 2396.38 1938.53 2311.51L1870.17 1978.34C1839.36 1828.17 1705.72 1719.18 1552.42 1719.18L768.133 1719.18Z" fill="#000072"/>
<g opacity="0.3">
<path d="M1671.31 2684.77L1664.81 2685.53H655.772L649.265 2684.77C532.842 2670.94 439.953 2595.24 397.711 2495.58C443.912 2537.11 502.964 2565.36 569.77 2573.34L576.277 2574.09H1585.31L1591.82 2573.34C1773.8 2551.7 1898.36 2379.1 1861.49 2199.61L1793.16 1866.45C1788.55 1844.05 1781.72 1822.63 1772.94 1802.3C1822.5 1847.52 1858.34 1908.15 1872.6 1977.83L1940.98 2310.99C1977.8 2490.48 1853.24 2663.13 1671.31 2684.77Z" fill="#000072"/>
</g>
<g opacity="0.55">
<path d="M1713.72 1759.24C1676.47 1744.55 1636.01 1736.58 1593.99 1736.58H809.72C654.525 1736.58 520.696 1845.68 489.516 1997.73L421.137 2330.89C393.048 2467.81 458.824 2600.67 572.373 2665.63C433.88 2611.73 348.203 2463.85 379.546 2310.99L447.925 1977.83C479.105 1825.83 612.934 1716.68 768.129 1716.68H1552.4C1610.64 1716.68 1665.84 1732.02 1713.72 1759.24Z" fill="white"/>
</g>
<path d="M1664.79 2701.79H655.768C655.128 2701.79 654.489 2701.75 653.854 2701.67L647.331 2700.9C556.086 2690.05 472.927 2641.1 419.167 2566.59C365.407 2492.08 345.168 2397.73 363.635 2307.73L431.994 1974.57C464.592 1815.71 605.959 1700.41 768.132 1700.41H1552.42C1714.59 1700.41 1855.96 1815.71 1888.56 1974.57L1956.92 2307.73C1975.39 2397.74 1955.14 2492.09 1901.38 2566.59C1847.62 2641.1 1764.47 2690.05 1673.23 2700.9L1666.71 2701.68C1666.07 2701.75 1665.43 2701.79 1664.79 2701.79ZM656.73 2669.25H1663.83L1669.4 2668.59C1751.61 2658.82 1826.55 2614.7 1875 2547.55C1923.45 2480.41 1941.69 2395.38 1925.05 2314.27L1856.68 1981.11C1827.17 1837.31 1699.22 1732.94 1552.42 1732.94H768.131C621.334 1732.94 493.375 1837.31 463.868 1981.11L395.509 2314.27C378.863 2395.38 397.101 2480.41 445.548 2547.55C494 2614.7 568.942 2658.82 651.163 2668.59L656.73 2669.25Z" fill="#000072"/>
<path d="M1739.58 1470.6C1738.61 1474.39 1737.58 1478.24 1736.55 1481.98C1735.73 1484.86 1734.92 1487.68 1734.11 1490.5C1733.78 1491.58 1733.51 1492.61 1733.13 1493.7C1732.48 1496.03 1731.72 1498.36 1731.02 1500.64C1730.09 1503.62 1729.12 1506.55 1728.14 1509.48C1727.71 1510.78 1727.27 1512.08 1726.84 1513.33C1725.43 1517.56 1723.97 1521.73 1722.39 1525.85C1720.77 1530.41 1719.03 1534.91 1717.24 1539.35C1715.51 1543.86 1713.66 1548.3 1711.77 1552.75C1709.92 1557.14 1707.97 1561.59 1705.96 1565.93C1704.07 1570.15 1702.11 1574.33 1700.11 1578.51C1699.84 1579.05 1699.57 1579.59 1699.29 1580.13C1697.45 1584.04 1695.5 1587.89 1693.49 1591.74C1693.44 1591.85 1693.38 1591.95 1693.33 1592.06C1691.16 1596.35 1688.94 1600.52 1686.66 1604.75C1683.95 1609.74 1681.18 1614.67 1678.31 1619.55C1676.36 1622.97 1674.35 1626.33 1672.34 1629.7C1672.24 1629.8 1672.18 1629.91 1672.18 1629.97C1669.69 1634.09 1667.14 1638.15 1664.54 1642.22C1660.2 1649 1655.75 1655.72 1651.14 1662.39C1649.14 1665.32 1647.07 1668.2 1645.01 1671.07C1643.28 1673.51 1641.54 1675.9 1639.75 1678.34C1637.1 1681.97 1634.38 1685.55 1631.67 1689.13C1629.02 1692.6 1626.36 1695.96 1623.65 1699.38C1622.13 1701.27 1620.61 1703.17 1619.09 1705.02C1618.12 1706.21 1617.14 1707.4 1616.17 1708.59C1614.32 1710.76 1612.53 1712.93 1610.69 1715.1C1605.7 1720.96 1600.6 1726.76 1595.4 1732.51C1592.9 1735.33 1590.3 1738.09 1587.7 1740.86C1585.8 1742.86 1583.9 1744.93 1582 1746.93C1579.29 1749.75 1576.63 1752.52 1573.87 1755.23C1569.96 1759.19 1565.95 1763.15 1561.94 1767.05C1558.69 1770.19 1555.43 1773.29 1552.12 1776.32C1551.64 1776.81 1551.15 1777.3 1550.66 1777.68C1547.3 1780.88 1543.88 1783.97 1540.41 1787.06C1534.07 1792.75 1527.61 1798.28 1521.05 1803.76C1519.42 1805.12 1517.8 1806.47 1516.12 1807.88C1512.81 1810.59 1509.45 1813.3 1506.03 1816.01C1494.21 1825.4 1482.12 1834.45 1469.75 1843.18C1469.54 1843.34 1469.27 1843.51 1469.05 1843.67C1420.84 1877.62 1368.41 1902.83 1313.96 1919.37C1295.09 1925.12 1275.95 1929.84 1256.65 1933.52C1171.13 1949.79 1082.53 1945.51 998.638 1920.78C942.243 1904.19 887.963 1878.32 838.13 1843.18C834.225 1840.42 830.321 1837.6 826.417 1834.78C826.038 1834.45 825.658 1834.18 825.224 1833.91C821.374 1831.04 817.524 1828.16 813.728 1825.29C809.77 1822.25 805.811 1819.16 801.853 1816.02H801.799C797.895 1812.87 794.045 1809.73 790.195 1806.58C786.291 1803.38 782.495 1800.13 778.699 1796.88C774.903 1793.62 771.162 1790.37 767.474 1787.06C763.732 1783.7 760.045 1780.39 756.412 1776.97C752.779 1773.61 749.2 1770.2 745.621 1766.73C742.042 1763.31 738.517 1759.84 735.047 1756.31C731.576 1752.79 728.106 1749.27 724.69 1745.69C721.274 1742.05 717.857 1738.42 714.441 1734.73C711.187 1731.15 707.988 1727.57 704.789 1723.89C702.295 1721.07 699.8 1718.19 697.36 1715.32C690.256 1706.92 683.316 1698.35 676.591 1689.62C673.88 1686.04 671.114 1682.46 668.511 1678.83C668.131 1678.39 667.806 1677.9 667.481 1677.47C665.637 1675.03 663.848 1672.53 662.113 1670.04C658.1 1664.4 654.196 1658.76 650.4 1653.01C648.285 1649.87 646.17 1646.67 644.164 1643.47C641.073 1638.64 638.036 1633.82 635.054 1628.88C632.993 1625.41 630.878 1621.89 628.818 1618.36C625.999 1613.43 623.233 1608.38 620.467 1603.34C618.461 1599.55 616.454 1595.75 614.502 1591.96C612.496 1588.11 610.543 1584.2 608.7 1580.3C608.375 1579.75 608.104 1579.21 607.886 1578.67C603.765 1570.26 599.915 1561.75 596.336 1553.18C596.119 1552.8 595.956 1552.48 595.848 1552.1C594.058 1547.87 592.323 1543.64 590.642 1539.35C588.852 1534.91 587.117 1530.41 585.49 1525.85C583.809 1521.35 582.182 1516.8 580.664 1512.24C579.525 1508.88 578.386 1505.46 577.302 1502.05C576.435 1499.34 575.621 1496.62 574.808 1493.91C574.428 1492.72 574.049 1491.47 573.723 1490.28C572.91 1487.62 572.151 1485.02 571.446 1482.36C570.361 1478.46 569.331 1474.55 568.301 1470.6C527.74 1184.28 788.079 866.761 1048.2 730.599C1114.36 695.949 1193.53 695.949 1259.68 730.599C1265.54 733.636 1271.34 736.889 1277.2 740.251L1277.25 740.305C1531.41 886.392 1779.22 1190.74 1739.58 1470.6Z" fill="#4D5A6A"/>
<g opacity="0.4">
<path d="M1253.99 1932.96C1261.37 1931.05 1268.71 1929.02 1276.01 1926.8C1330.45 1910.26 1382.89 1885.05 1431.09 1851.1C1431.31 1850.94 1431.58 1850.78 1431.8 1850.61C1444.16 1841.89 1456.26 1832.83 1468.08 1823.45C1471.49 1820.74 1474.86 1818.03 1478.16 1815.31C1479.84 1813.91 1481.47 1812.55 1483.1 1811.2C1489.66 1805.72 1496.11 1800.19 1502.46 1794.49C1505.93 1791.4 1509.34 1788.31 1512.7 1785.11C1513.19 1784.73 1513.68 1784.24 1514.17 1783.76C1517.48 1780.72 1520.73 1777.63 1523.98 1774.48C1527.99 1770.58 1532.01 1766.62 1535.91 1762.66C1538.68 1759.95 1541.33 1757.18 1544.05 1754.36C1545.94 1752.36 1547.84 1750.3 1549.74 1748.29C1552.34 1745.52 1554.95 1742.76 1557.44 1739.94C1562.65 1734.19 1567.74 1728.39 1572.73 1722.53C1574.57 1720.37 1576.36 1718.2 1578.21 1716.03C1579.18 1714.83 1580.16 1713.64 1581.14 1712.45C1582.65 1710.6 1584.17 1708.71 1585.69 1706.81C1588.4 1703.39 1591.06 1700.03 1593.72 1696.56C1596.43 1692.98 1599.14 1689.4 1601.79 1685.77C1603.58 1683.33 1605.32 1680.94 1607.06 1678.5C1609.12 1675.63 1611.18 1672.75 1613.18 1669.83C1617.79 1663.16 1622.24 1656.43 1626.58 1649.66C1629.18 1645.59 1631.73 1641.52 1634.22 1637.4C1634.22 1637.35 1634.28 1637.24 1634.39 1637.13C1636.39 1633.77 1638.4 1630.4 1640.35 1626.99C1643.22 1622.11 1645.99 1617.17 1648.7 1612.19C1650.98 1607.95 1653.2 1603.78 1655.37 1599.5C1655.43 1599.39 1655.48 1599.28 1655.53 1599.17C1657.54 1595.32 1659.49 1591.47 1661.33 1587.57C1661.61 1587.02 1661.88 1586.48 1662.15 1585.94C1664.15 1581.76 1666.11 1577.59 1668 1573.36C1670.01 1569.02 1671.97 1564.57 1673.81 1560.18C1675.7 1555.74 1677.55 1551.29 1679.28 1546.79C1681.07 1542.34 1682.81 1537.84 1684.44 1533.29C1686.01 1529.16 1687.47 1524.99 1688.88 1520.76C1689.32 1519.51 1689.75 1518.21 1690.19 1516.91C1691.16 1513.98 1692.14 1511.05 1693.06 1508.07C1693.76 1505.79 1694.52 1503.46 1695.17 1501.13C1695.55 1500.04 1695.83 1499.01 1696.15 1497.93C1696.96 1495.11 1697.78 1492.29 1698.59 1489.42C1699.62 1485.68 1700.65 1481.83 1701.63 1478.03C1740.78 1201.6 1499.49 901.277 1248.64 753.18C1425.1 913.684 1558.62 1138.57 1528.75 1349.57C1527.78 1353.36 1526.75 1357.21 1525.72 1360.95C1524.9 1363.83 1524.09 1366.65 1523.28 1369.47C1522.95 1370.55 1522.68 1371.58 1522.3 1372.67C1521.65 1375 1520.89 1377.33 1520.19 1379.61C1519.27 1382.59 1518.29 1385.52 1517.31 1388.45C1516.88 1389.75 1516.45 1391.05 1516.01 1392.3C1514.6 1396.53 1513.14 1400.7 1511.57 1404.82C1509.94 1409.38 1508.2 1413.88 1506.41 1418.33C1504.68 1422.83 1502.83 1427.27 1500.94 1431.72C1499.09 1436.11 1497.14 1440.56 1495.13 1444.9C1493.24 1449.13 1491.28 1453.3 1489.28 1457.48C1489.01 1458.02 1488.74 1458.56 1488.46 1459.1C1486.62 1463.01 1484.67 1466.86 1482.66 1470.71C1482.61 1470.81 1482.56 1470.93 1482.5 1471.03C1480.33 1475.32 1478.11 1479.49 1475.83 1483.72C1473.12 1488.71 1470.35 1493.65 1467.48 1498.53C1465.53 1501.94 1463.52 1505.3 1461.51 1508.67C1461.41 1508.77 1461.35 1508.88 1461.35 1508.94C1458.86 1513.06 1456.31 1517.12 1453.71 1521.19C1449.37 1527.97 1444.92 1534.7 1440.31 1541.36C1438.31 1544.29 1436.25 1547.17 1434.19 1550.04C1432.45 1552.48 1430.71 1554.87 1428.92 1557.31C1426.27 1560.94 1423.55 1564.52 1420.84 1568.1C1418.19 1571.57 1415.53 1574.93 1412.82 1578.35C1411.3 1580.24 1409.78 1582.14 1408.26 1583.99C1407.29 1585.18 1406.31 1586.37 1405.34 1587.57C1403.49 1589.74 1401.7 1591.9 1399.86 1594.07C1394.87 1599.93 1389.77 1605.73 1384.57 1611.48C1382.07 1614.3 1379.47 1617.07 1376.87 1619.83C1374.97 1621.84 1373.07 1623.9 1371.17 1625.9C1368.46 1628.72 1365.8 1631.49 1363.04 1634.2C1359.13 1638.16 1355.12 1642.12 1351.11 1646.02C1347.85 1649.17 1344.6 1652.26 1341.29 1655.3C1340.81 1655.78 1340.32 1656.27 1339.83 1656.65C1336.47 1659.85 1333.05 1662.94 1329.58 1666.03C1323.24 1671.73 1316.79 1677.26 1310.22 1682.73C1308.6 1684.09 1306.97 1685.44 1305.29 1686.85C1301.98 1689.57 1298.62 1692.28 1295.2 1694.99C1283.38 1704.37 1271.29 1713.43 1258.92 1722.16C1258.71 1722.32 1258.44 1722.48 1258.22 1722.65C1210.01 1756.59 1157.58 1781.8 1103.13 1798.34C1084.26 1804.09 1065.12 1808.81 1045.82 1812.5C1046.74 1812.32 1047.66 1812.11 1048.58 1811.93C1036.89 1814.97 1025.12 1817.66 1013.28 1819.93C942.534 1833.38 869.676 1832.73 799.119 1818.12C798.298 1817.47 797.477 1816.84 796.654 1816.2C800.538 1819.28 804.425 1822.31 808.307 1825.29C812.104 1828.17 815.954 1831.04 819.804 1833.92C820.238 1834.19 820.619 1834.46 820.998 1834.78C824.901 1837.6 828.806 1840.42 832.709 1843.19C882.545 1878.33 936.824 1904.19 993.218 1920.79C1077.11 1945.51 1165.71 1949.8 1251.23 1933.53C1261.32 1931.6 1271.36 1929.38 1281.35 1926.89C1272.27 1929.14 1263.15 1931.16 1253.99 1932.96Z" fill="#000072"/>
</g>
<g opacity="0.55">
<path d="M1370.25 804.357C1350.24 790.801 1330.02 778.166 1309.79 766.508L1309.74 766.454C1303.88 763.092 1298.08 759.838 1292.22 756.802C1226.07 722.152 1146.9 722.152 1080.74 756.802C820.619 892.963 560.281 1210.51 600.842 1496.82C601.872 1500.78 602.903 1504.69 603.987 1508.59C604.692 1511.25 605.451 1513.85 606.264 1516.51C606.589 1517.7 606.969 1518.95 607.349 1520.14C608.162 1522.85 608.976 1525.56 609.843 1528.27C610.928 1531.69 612.067 1535.11 613.205 1538.47C614.723 1543.02 616.35 1547.58 618.031 1552.08C619.658 1556.64 621.393 1561.13 623.182 1565.58C624.863 1569.87 626.598 1574.09 628.388 1578.32C628.496 1578.7 628.659 1579.03 628.876 1579.41C632.455 1587.98 636.305 1596.49 640.426 1604.9C640.643 1605.44 640.914 1605.98 641.239 1606.52C643.083 1610.43 645.035 1614.33 647.041 1618.18C648.993 1621.98 650.999 1625.77 653.006 1629.57C655.772 1634.61 658.537 1639.66 661.357 1644.59C663.418 1648.11 665.533 1651.64 667.593 1655.11C670.575 1660.04 673.612 1664.87 676.703 1669.7C678.709 1672.9 680.824 1676.09 682.939 1679.24C686.735 1684.99 690.639 1690.63 694.652 1696.27C696.387 1698.76 698.177 1701.26 700.02 1703.7C700.345 1704.13 700.671 1704.62 701.05 1705.05C703.653 1708.69 706.418 1712.26 709.13 1715.84C715.854 1724.57 722.795 1733.14 729.899 1741.55C732.339 1744.42 734.834 1747.29 737.328 1750.11C740.527 1753.8 743.727 1757.38 746.98 1760.96C750.396 1764.65 753.813 1768.28 757.229 1771.91C760.645 1775.49 764.115 1779.02 767.586 1782.54C771.057 1786.07 774.581 1789.54 778.16 1792.95C781.739 1796.42 785.318 1799.84 788.951 1803.2C792.584 1806.62 796.271 1809.93 800.013 1813.29C803.7 1816.6 807.442 1819.85 811.238 1823.1C815.034 1826.36 818.83 1829.61 822.734 1832.81C826.584 1835.95 830.434 1839.1 834.338 1842.24H834.392C838.35 1845.39 842.309 1848.48 846.267 1851.52C849.792 1854.17 853.371 1856.83 856.949 1859.54C852.449 1856.61 848.002 1853.58 843.555 1850.43C839.651 1847.67 835.746 1844.85 831.842 1842.03C831.463 1841.7 831.083 1841.43 830.649 1841.16C826.799 1838.28 822.949 1835.41 819.153 1832.54C815.195 1829.5 811.236 1826.41 807.278 1823.26H807.224C803.32 1820.12 799.47 1816.97 795.62 1813.83C791.716 1810.63 787.92 1807.38 784.124 1804.12C780.328 1800.87 776.587 1797.61 772.899 1794.31C769.157 1790.94 765.47 1787.64 761.837 1784.22C758.204 1780.86 754.625 1777.44 751.046 1773.97C747.467 1770.56 743.942 1767.09 740.472 1763.56C737.001 1760.04 733.531 1756.51 730.115 1752.93C726.699 1749.3 723.282 1745.67 719.866 1741.98C716.612 1738.4 713.413 1734.82 710.214 1731.13C707.72 1728.31 705.225 1725.44 702.785 1722.57C695.681 1714.16 688.741 1705.59 682.016 1696.86C679.305 1693.28 676.539 1689.71 673.936 1686.07C673.556 1685.64 673.231 1685.15 672.906 1684.72C671.062 1682.28 669.273 1679.78 667.538 1677.29C663.525 1671.65 659.621 1666.01 655.825 1660.26C653.71 1657.12 651.595 1653.92 649.589 1650.72C646.498 1645.89 643.461 1641.06 640.479 1636.13C638.418 1632.66 636.303 1629.14 634.243 1625.61C631.423 1620.68 628.658 1615.63 625.892 1610.59C623.886 1606.79 621.879 1603 619.927 1599.2C617.921 1595.35 615.968 1591.45 614.125 1587.54C613.8 1587 613.529 1586.46 613.311 1585.92C609.19 1577.51 605.34 1569 601.761 1560.43C601.544 1560.05 601.381 1559.72 601.273 1559.34C599.483 1555.12 597.748 1550.89 596.067 1546.6C594.278 1542.15 592.542 1537.66 590.916 1533.1C589.235 1528.6 587.608 1524.04 586.09 1519.49C584.951 1516.13 583.812 1512.71 582.728 1509.29C581.861 1506.58 581.047 1503.87 580.234 1501.16C579.854 1499.97 579.475 1498.72 579.149 1497.53C578.336 1494.87 577.577 1492.27 576.872 1489.61C575.787 1485.71 574.757 1481.8 573.727 1477.84C533.166 1191.53 793.505 873.984 1053.63 737.823C1119.78 703.173 1198.95 703.173 1265.11 737.823C1270.96 740.86 1276.77 744.113 1282.62 747.475L1282.68 747.529C1312.12 764.447 1341.46 783.48 1370.25 804.357Z" fill="white"/>
</g>
<path d="M1153.94 1959.37C1039.95 1959.37 925.978 1925.07 828.756 1856.48C824.786 1853.67 820.836 1850.81 816.891 1847.96C816.686 1847.82 816.486 1847.66 816.29 1847.51C816.017 1847.33 815.753 1847.14 815.489 1846.95C811.397 1843.89 807.623 1841.07 803.907 1838.26C800.064 1835.31 796.29 1832.36 792.52 1829.37C792.203 1829.16 791.9 1828.93 791.602 1828.69C787.789 1825.62 784.029 1822.55 780.264 1819.47C775.889 1815.89 771.997 1812.56 768.116 1809.23C764.224 1805.89 760.387 1802.56 756.612 1799.17L756.08 1798.69C752.423 1795.4 748.824 1792.16 745.269 1788.82C741.641 1785.46 737.969 1781.96 734.297 1778.4C730.693 1774.96 727.046 1771.37 723.457 1767.73C719.78 1763.99 716.323 1760.48 712.92 1756.91C709.395 1753.17 705.957 1749.51 702.515 1745.79C699.068 1742 695.782 1738.33 692.5 1734.55C690.034 1731.76 687.461 1728.8 684.951 1725.83C677.505 1717.03 670.361 1708.19 663.701 1699.54L661.909 1697.18C659.785 1694.38 657.661 1691.59 655.62 1688.75C655.244 1688.28 654.888 1687.81 654.546 1687.34C652.539 1684.67 650.625 1682.01 648.765 1679.34C644.41 1673.22 640.474 1667.5 636.831 1661.98C634.692 1658.8 632.48 1655.46 630.386 1652.12C627.295 1647.29 624.185 1642.35 621.133 1637.29L619.219 1634.07C617.735 1631.59 616.24 1629.08 614.776 1626.57C611.978 1621.67 609.307 1616.81 606.641 1611.96L606.211 1611.17C604.048 1607.09 602.012 1603.24 600.034 1599.39C598.071 1595.62 596.118 1591.72 594.263 1587.81C593.814 1587 593.404 1586.17 593.052 1585.35C588.672 1576.29 584.927 1568.03 581.617 1560.15C581.3 1559.52 580.953 1558.76 580.635 1557.89C578.872 1553.71 577.159 1549.52 575.498 1545.29C573.686 1540.78 571.87 1536.08 570.171 1531.32C568.506 1526.86 566.817 1522.12 565.234 1517.38C564.087 1514 562.915 1510.48 561.796 1506.97C560.912 1504.19 560.072 1501.39 559.228 1498.59C558.857 1497.42 558.417 1495.97 558.037 1494.58C557.295 1492.17 556.479 1489.38 555.722 1486.52C554.667 1482.73 553.613 1478.74 552.563 1474.7C552.407 1474.1 552.285 1473.49 552.197 1472.88C527.637 1299.5 609.321 1139.04 682.173 1034.96C774.234 903.442 904.897 787.253 1040.66 716.189C1111.6 679.036 1196.29 679.036 1267.23 716.189C1402.99 787.254 1533.66 903.445 1625.72 1034.96C1698.57 1139.04 1780.25 1299.5 1755.69 1472.88C1755.61 1473.48 1755.49 1474.07 1755.34 1474.65C1754.34 1478.53 1753.29 1482.47 1752.23 1486.3L1749.44 1496.01C1749.2 1496.85 1748.96 1497.68 1748.67 1498.53C1748.19 1500.24 1747.65 1501.95 1747.12 1503.64L1746.56 1505.43C1745.67 1508.32 1744.73 1511.14 1743.8 1513.96L1743.58 1514.6C1743.12 1516 1742.66 1517.37 1742.2 1518.68C1740.79 1522.92 1739.24 1527.32 1737.59 1531.65C1736.02 1536.08 1734.2 1540.79 1732.33 1545.44C1730.62 1549.88 1728.7 1554.5 1726.73 1559.12C1724.84 1563.62 1722.81 1568.24 1720.73 1572.75C1718.85 1576.94 1716.84 1581.24 1714.77 1585.55L1713.83 1587.44C1712.08 1591.17 1710.02 1595.21 1707.92 1599.26C1705.62 1603.81 1703.33 1608.11 1700.99 1612.46C1698.16 1617.67 1695.3 1622.76 1692.33 1627.8C1690.43 1631.13 1688.37 1634.58 1686.31 1638.03C1686.29 1638.07 1686.27 1638.1 1686.25 1638.14C1686.2 1638.22 1686.15 1638.31 1686.1 1638.39C1683.54 1642.63 1680.91 1646.81 1678.24 1650.99C1673.47 1658.44 1668.98 1665.2 1664.53 1671.64C1662.49 1674.62 1660.36 1677.58 1658.24 1680.55C1656.49 1683 1654.71 1685.45 1652.88 1687.95C1650.17 1691.65 1647.41 1695.3 1644.65 1698.95C1641.88 1702.56 1639.16 1706 1636.38 1709.5C1634.79 1711.5 1633.22 1713.45 1631.65 1715.36L1623.08 1725.64C1617.98 1731.63 1612.72 1737.61 1607.45 1743.43C1605.06 1746.14 1602.41 1748.96 1599.77 1751.77L1593.81 1758.12C1590.84 1761.21 1588.1 1764.06 1585.26 1766.85C1581.47 1770.69 1577.38 1774.73 1573.28 1778.71C1569.97 1781.91 1566.7 1785.03 1563.36 1788.09C1562.74 1788.7 1562.11 1789.29 1561.49 1789.83C1558.12 1793.02 1554.7 1796.11 1551.23 1799.21C1544.49 1805.2 1537.85 1810.93 1531.48 1816.24L1526.58 1820.34C1523.06 1823.22 1519.63 1825.99 1516.15 1828.75C1504.17 1838.26 1491.72 1847.59 1479.14 1856.47C1479.04 1856.54 1478.72 1856.76 1478.54 1856.89C1478.5 1856.91 1478.45 1856.95 1478.41 1856.98C1381.34 1925.24 1267.63 1959.36 1153.94 1959.37ZM836.354 1821.89C840.08 1824.58 843.81 1827.27 847.536 1829.91C1030.5 1959 1276.51 1959.18 1459.7 1830.36V1830.37C1459.95 1830.18 1460.23 1830 1460.39 1829.89C1472.46 1821.36 1484.42 1812.41 1495.92 1803.27C1499.27 1800.62 1502.56 1797.96 1505.81 1795.3L1510.63 1791.27C1516.74 1786.17 1523.12 1780.66 1529.6 1774.9C1532.93 1771.94 1536.22 1768.97 1539.45 1765.9C1539.72 1765.63 1540.02 1765.37 1540.32 1765.12L1540.62 1764.82C1540.79 1764.66 1540.96 1764.49 1541.13 1764.34C1544.33 1761.39 1547.48 1758.4 1550.63 1755.36C1554.53 1751.56 1558.46 1747.69 1562.28 1743.81C1565.1 1741.05 1567.61 1738.43 1570.17 1735.77L1575.87 1729.69C1578.48 1726.92 1580.9 1724.35 1583.21 1721.74C1588.39 1716.01 1593.43 1710.28 1598.31 1704.55L1606.48 1694.75C1608.01 1692.89 1609.48 1691.05 1610.95 1689.22C1613.57 1685.92 1616.17 1682.63 1618.76 1679.24C1621.37 1675.8 1624.03 1672.29 1626.63 1668.72C1628.38 1666.34 1630.07 1664.02 1631.77 1661.63C1633.79 1658.81 1635.78 1656.03 1637.73 1653.2C1642 1647.01 1646.28 1640.57 1650.84 1633.45C1653.36 1629.5 1655.84 1625.55 1658.26 1621.55C1658.3 1621.49 1658.34 1621.42 1658.38 1621.36C1660.33 1618.08 1662.29 1614.81 1664.19 1611.48C1667.07 1606.59 1669.74 1601.81 1672.37 1596.99C1674.55 1592.93 1676.71 1588.88 1678.82 1584.72C1678.84 1584.66 1679.04 1584.28 1679.07 1584.22C1680.97 1580.56 1682.83 1576.9 1684.58 1573.2L1685.58 1571.18C1687.39 1567.41 1689.28 1563.37 1691.12 1559.28C1693.13 1554.93 1695 1550.66 1696.77 1546.45C1698.63 1542.1 1700.4 1537.83 1702.06 1533.51C1703.86 1529.03 1705.52 1524.73 1707.07 1520.38C1708.68 1516.14 1710.08 1512.19 1711.41 1508.18L1712.92 1503.71C1713.79 1501.1 1714.66 1498.49 1715.48 1495.83L1716.08 1493.91C1716.55 1492.39 1717.03 1490.86 1717.46 1489.33C1717.56 1488.98 1717.66 1488.64 1717.79 1488.3C1717.94 1487.85 1718.06 1487.41 1718.19 1486.96L1720.9 1477.54C1721.8 1474.29 1722.72 1470.84 1723.61 1467.42C1741.28 1340.54 1697.07 1193.63 1599.07 1053.62C1509.89 926.228 1383.45 813.742 1252.14 745.012C1190.66 712.805 1117.24 712.805 1055.75 745.012C924.45 813.742 798 926.225 708.825 1053.62C610.827 1193.62 566.623 1340.53 584.284 1467.4C585.217 1470.97 586.149 1474.49 587.126 1478.01C587.829 1480.67 588.537 1483.07 589.289 1485.53C589.689 1486.98 590.012 1488.02 590.324 1489.02C591.178 1491.86 591.97 1494.48 592.805 1497.11C593.865 1500.44 594.978 1503.76 596.081 1507.02C597.56 1511.47 599.123 1515.84 600.734 1520.16C602.37 1524.74 604.03 1529.04 605.739 1533.29C607.419 1537.57 609.103 1541.67 610.837 1545.76C610.866 1545.84 610.901 1545.91 610.93 1545.99C611.081 1546.3 611.223 1546.61 611.35 1546.91C614.548 1554.57 618.21 1562.64 622.537 1571.58C622.64 1571.8 622.742 1572.02 622.835 1572.24C623.04 1572.6 623.235 1572.97 623.411 1573.34C625.169 1577.05 627.024 1580.77 628.933 1584.44C630.901 1588.26 632.878 1592 634.851 1595.74L635.159 1596.3C637.742 1601 640.32 1605.69 642.947 1610.29C644.285 1612.58 645.73 1615.01 647.166 1617.41L649.046 1620.57C651.893 1625.28 654.857 1629.99 657.869 1634.7C659.866 1637.88 661.883 1640.93 663.904 1643.94C667.41 1649.24 671.14 1654.66 675.369 1660.6C677.083 1663.06 678.743 1665.38 680.462 1667.65C680.535 1667.75 680.867 1668.21 680.941 1668.31L680.721 1668.07C681.087 1668.48 681.429 1668.91 681.746 1669.35C683.704 1672.09 685.76 1674.79 687.811 1677.48L689.564 1679.79C695.843 1687.94 702.674 1696.4 709.788 1704.81C712.142 1707.59 714.559 1710.37 716.976 1713.11C720.199 1716.82 723.319 1720.31 726.488 1723.79C729.769 1727.33 733.158 1730.94 736.547 1734.54C739.75 1737.9 743.09 1741.29 746.43 1744.68C749.999 1748.31 753.403 1751.66 756.86 1754.96C760.444 1758.43 763.93 1761.76 767.47 1765.03C770.942 1768.3 774.36 1771.37 777.831 1774.49L778.353 1774.96C781.942 1778.18 785.594 1781.35 789.295 1784.53C792.996 1787.7 796.702 1790.88 800.511 1794C804.276 1797.08 807.747 1799.91 811.239 1802.73C811.488 1802.9 811.737 1803.09 811.976 1803.28C815.863 1806.37 819.745 1809.4 823.636 1812.38C827.176 1815.06 830.848 1817.81 834.52 1820.55C835.163 1820.97 835.763 1821.41 836.354 1821.89ZM1540.7 1764.82C1540.66 1764.85 1540.62 1764.88 1540.58 1764.92C1540.62 1764.89 1540.66 1764.85 1540.7 1764.82ZM611.501 1547.66C611.506 1547.67 611.506 1547.67 611.511 1547.68C611.506 1547.67 611.506 1547.67 611.501 1547.66ZM610.505 1545.19C610.51 1545.19 610.51 1545.2 610.515 1545.2C610.51 1545.2 610.51 1545.19 610.505 1545.19Z" fill="#000072"/>
<path d="M1609.64 1552.77C1608.64 1555.82 1607.55 1558.91 1606.42 1562.08C1576.27 1639.31 1517.14 1680.47 1481.33 1633.87L1502.69 1528.97L1517.23 1457.66C1573.09 1419.51 1647.58 1436.65 1609.64 1552.77Z" fill="#FDBD91"/>
<path d="M1517.15 1655.47C1502.94 1655.47 1490.12 1648.5 1479.79 1635.06L1479.25 1634.35L1515.48 1456.51L1516.13 1456.06C1546.63 1435.23 1580.95 1431.62 1601.53 1447.06C1614.94 1457.12 1634.05 1484.3 1611.48 1553.38C1610.47 1556.44 1609.38 1559.54 1608.24 1562.74C1588.09 1614.36 1554.86 1650.55 1523.56 1655.01C1521.4 1655.32 1519.26 1655.47 1517.15 1655.47ZM1483.41 1633.38C1494.28 1647.16 1507.94 1653.31 1523.02 1651.17C1552.95 1646.91 1584.98 1611.66 1604.61 1561.38C1605.72 1558.27 1606.8 1555.2 1607.79 1552.17C1623.97 1502.68 1620.92 1466.45 1599.21 1450.16C1580.1 1435.82 1547.92 1439.32 1518.97 1458.82L1483.41 1633.38Z" fill="#000072"/>
<g opacity="0.3">
<path d="M1609.64 1552.77C1608.64 1555.82 1607.55 1558.91 1606.42 1562.08C1576.27 1639.31 1517.14 1680.47 1481.33 1633.87L1502.69 1528.97C1507.7 1528.58 1510.7 1528.36 1510.7 1528.36C1532.41 1596.28 1563.95 1602.33 1605.33 1546.47C1605.33 1546.47 1606.9 1548.77 1609.64 1552.77Z" fill="#000072"/>
</g>
<path d="M1517.22 1666.57C1499.59 1666.57 1483.4 1657.98 1470.98 1641.83C1468.67 1638.83 1467.79 1634.98 1468.54 1631.27L1504.44 1455.06C1505.11 1451.73 1507.06 1448.8 1509.86 1446.88C1544.71 1423.09 1584.51 1419.79 1608.89 1438.69C1625.24 1451.37 1648.26 1484.83 1618.7 1566.52C1596.69 1622.9 1560.89 1660.9 1525.15 1666C1522.48 1666.38 1519.84 1666.57 1517.22 1666.57ZM1495.39 1630.26C1503.07 1638.31 1511.66 1641.55 1521.46 1640.16C1547.09 1636.5 1576.35 1603.22 1594.26 1557.34C1611.63 1509.33 1611.17 1473.49 1592.89 1459.32C1578.6 1448.24 1552.82 1450.95 1528.92 1465.63L1495.39 1630.26Z" fill="#000072"/>
<path d="M698.362 1552.77C699.363 1555.82 700.45 1558.91 701.582 1562.08C731.734 1639.31 790.863 1680.47 826.671 1633.87L805.308 1528.97L790.776 1457.66C734.91 1419.51 660.422 1436.65 698.362 1552.77Z" fill="#FDBD91"/>
<path d="M790.867 1656.25C788.719 1656.25 786.536 1656.09 784.324 1655.77C752.761 1651.28 719.29 1614.89 699.06 1563.07C697.888 1559.8 696.794 1556.69 695.784 1553.62V1553.61C673.069 1484.08 692.434 1456.62 706.004 1446.44C726.849 1430.8 761.531 1434.4 792.303 1455.42L793.211 1456.04L829.578 1634.54L828.821 1635.52C818.333 1649.17 805.32 1656.25 790.867 1656.25ZM700.94 1551.93C701.931 1554.95 703.015 1558.02 704.138 1561.17C723.64 1611.12 755.427 1646.18 785.09 1650.41C799.973 1652.52 812.971 1646.73 823.767 1633.19L788.337 1459.29C759.719 1440.12 728.039 1436.68 709.26 1450.78C687.835 1466.85 684.881 1502.77 700.94 1551.93Z" fill="#000072"/>
<g opacity="0.55">
<path d="M778.424 1652.25C750.796 1643.03 722.297 1609.7 704.198 1563.36C703.067 1560.19 701.979 1557.1 700.978 1554.05C663.038 1437.93 737.526 1420.78 793.391 1458.94L793.652 1460.25C743.138 1441.15 692.189 1467.64 724.908 1567.85C725.909 1570.89 726.997 1573.98 728.128 1577.16C740.963 1610.09 759.106 1636.46 778.424 1652.25Z" fill="white"/>
</g>
<path d="M790.779 1666.57C788.167 1666.57 785.525 1666.38 782.859 1666C747.117 1660.91 711.316 1622.9 689.426 1566.83C659.743 1484.83 682.766 1451.37 699.118 1438.69C723.498 1419.79 763.288 1423.09 798.136 1446.88C800.939 1448.8 802.887 1451.73 803.561 1455.06L839.46 1631.27C840.217 1634.98 839.328 1638.83 837.019 1641.83C824.607 1657.97 808.411 1666.57 790.779 1666.57ZM737.757 1452.52C728.875 1452.52 721.014 1454.75 715.111 1459.32C696.83 1473.49 696.376 1509.33 713.861 1557.64C731.659 1603.22 760.912 1636.5 786.542 1640.16C796.356 1641.55 804.926 1638.31 812.616 1630.26L779.076 1465.63C765.052 1457.01 750.374 1452.52 737.757 1452.52Z" fill="#000072"/>
<path d="M1509.35 1531.63V1591.93C1509.35 1695.66 1459.71 1794.03 1374.21 1852.77C1372.99 1853.6 1371.77 1854.38 1370.6 1855.21C1240.2 1942.62 1069.47 1942.62 939.075 1855.25C937.9 1854.42 936.682 1853.6 935.464 1852.77C849.925 1794.08 800.281 1695.7 800.281 1591.93V1531.63C800.281 1531.63 800.499 1527.76 800.934 1520.79C804.154 1465.76 818.729 1218.8 821.079 1212.49C898.699 1003.56 1674.73 1054.77 1509.35 1531.63Z" fill="#FDBD91"/>
<path d="M1154.79 1923.81C1079.17 1923.81 1003.55 1901.71 937.565 1857.5C936.466 1856.73 935.382 1855.99 934.294 1855.25C848.547 1796.42 797.57 1698.07 797.57 1591.93V1531.63C797.575 1531.47 797.795 1527.6 798.229 1520.63C803.536 1429.84 816.139 1217.98 818.542 1211.54C838.913 1156.7 907.985 1116.07 1008.04 1100.06C1104.62 1084.61 1217.13 1095.08 1308.98 1128.07C1400.7 1161 1603.98 1266.28 1512.06 1532.08V1591.93C1512.06 1698.02 1461.1 1796.36 1375.74 1855L1374.34 1855.94C1373.6 1856.43 1372.87 1856.92 1372.16 1857.42C1306.13 1901.68 1230.46 1923.81 1154.79 1923.81ZM1099.59 1098.48C1068.58 1098.48 1038.01 1100.76 1008.9 1105.42C910.828 1121.1 843.298 1160.47 823.626 1213.43C821.746 1220.38 811.683 1383.45 803.641 1520.95C803.206 1527.91 802.987 1531.78 802.987 1531.78L802.992 1591.93C802.992 1696.28 853.09 1792.95 937.001 1850.53C938.456 1851.52 939.569 1852.28 940.639 1853.03C1070.75 1940.2 1238.95 1940.18 1369.09 1852.95C1369.79 1852.46 1370.56 1851.94 1371.34 1851.43L1372.69 1850.52C1456.56 1792.9 1506.64 1696.23 1506.64 1591.93L1506.79 1530.74C1597.49 1269.19 1397.4 1165.58 1307.15 1133.17C1243.81 1110.42 1170.54 1098.48 1099.59 1098.48Z" fill="#000072"/>
<g opacity="0.3">
<path d="M1509.35 1531.63V1591.93C1509.35 1695.66 1459.71 1794.03 1374.21 1852.77C1372.99 1853.6 1371.77 1854.38 1370.6 1855.21C1240.2 1942.62 1069.47 1942.62 939.076 1855.25C937.901 1854.42 936.683 1853.6 935.465 1852.77C932.767 1850.9 930.07 1848.98 927.416 1847.03C1050.11 1906.68 1197.17 1897.8 1312.6 1820.4C1313.78 1819.57 1314.99 1818.79 1316.21 1817.96C1401.71 1759.22 1451.35 1660.85 1451.35 1557.12L1456.51 1481.11C1512.64 1319.3 1455.18 1222.23 1358.59 1152.01C1490.03 1216.8 1575.88 1339.75 1509.35 1531.63Z" fill="#000072"/>
</g>
<g opacity="0.3">
<path d="M1509.35 1531.63V1556.12C1470.37 1498.69 1462.84 1341.97 1462.84 1341.97C1428.76 1378.98 1237.33 1421.66 1102.99 1350.3C1095.75 1346.45 1087.8 1354.14 1091.43 1361.5C1093.07 1364.81 1093.74 1365.93 1093.74 1365.93C1076.07 1376.87 992.837 1366.21 947.688 1339.94C935.131 1332.63 919.118 1340.54 916.869 1354.9C906.753 1419.45 874.616 1464.38 805.851 1531.63C804.154 1528.02 802.501 1524.41 800.934 1520.79C804.154 1465.76 818.729 1218.8 821.079 1212.49C898.7 1003.56 1674.73 1054.77 1509.35 1531.63Z" fill="#000072"/>
</g>
<g opacity="0.55">
<path d="M1301.94 1891.8C1184.03 1940.13 1047.59 1927.95 939.075 1855.25C937.9 1854.42 936.682 1853.6 935.464 1852.77C849.925 1794.08 800.281 1695.7 800.281 1591.93V1531.63C800.281 1531.63 818.425 1219.58 821.079 1212.49C837.395 1168.59 884.515 1136.18 947.299 1116.77C900.091 1136.48 865.415 1164.98 851.884 1201.35C849.23 1208.49 831.087 1520.49 831.087 1520.49V1580.79C831.087 1684.56 880.731 1782.94 966.27 1841.68C967.489 1842.46 968.834 1843.12 969.925 1844.11C1054.59 1920.77 1191.6 1926.47 1301.94 1891.8Z" fill="white"/>
</g>
<path d="M1154.82 1934.18C1077.19 1934.18 999.568 1911.48 931.834 1866.09C930.584 1865.25 929.334 1864.4 928.084 1863.55C839.886 1803.03 787.23 1701.49 787.23 1591.93V1531.63C787.23 1531.37 787.235 1531.12 787.25 1530.87C805.502 1217.11 808.021 1210.15 808.847 1207.93C856.616 1079.4 1125.72 1051.26 1312.52 1118.35C1401.5 1150.31 1468.88 1201 1507.36 1264.93C1552.65 1340.17 1557.71 1430.62 1522.4 1533.81V1591.93C1522.4 1701.46 1469.76 1802.99 1381.58 1863.52L1377.87 1866.04C1310.12 1911.46 1232.47 1934.17 1154.82 1934.18ZM813.333 1532.01V1591.93C813.333 1692.88 861.757 1786.37 942.859 1842.03C944.021 1842.82 945.183 1843.61 946.355 1844.39C1073.02 1929.28 1236.69 1929.27 1363.31 1844.37L1366.79 1842.01C1447.89 1786.34 1496.3 1692.85 1496.3 1591.93V1531.63C1496.3 1530.17 1496.54 1528.73 1497.01 1527.35C1584.7 1274.55 1391.03 1174.29 1303.69 1142.92C1114.39 1074.93 873.494 1112.58 833.674 1216.08C831.258 1232.94 820.257 1413.04 813.333 1532.01ZM833.411 1216.76C833.382 1216.84 833.348 1216.93 833.323 1217.01C833.347 1216.94 833.377 1216.86 833.411 1216.76Z" fill="#000072"/>
<path d="M1505.26 1084.57C1603.16 1209.66 1590.97 1427.34 1508.52 1541.42C1445.44 1506.61 1441.26 1341.97 1441.26 1341.97C1291.94 1382.61 1140.83 1357.81 1003.82 1239.77C1000.9 1286.15 1039.76 1329.18 1039.76 1329.18C1022.14 1328.66 1006.34 1326.09 992.157 1321.83C942.6 1306.99 913.102 1271.1 895.046 1225.98C877.642 1382.61 876.554 1417.42 800.282 1531.63C724.141 1368.47 710.131 1167.24 837.047 1107.07C660.096 1046.15 725.359 922.848 877.641 1032.36C802.936 925.024 897.22 883.647 916.799 1001.91C1026.92 800.762 1510.7 871.378 1576.27 1099.8L1505.43 1084.62C1505.3 1084.57 1505.26 1084.57 1505.26 1084.57Z" fill="#AC3D50"/>
<path d="M1509.31 1544.95L1507.21 1543.79C1447.84 1511.04 1439.64 1370.05 1438.66 1345.48C1280.04 1387.63 1134.65 1354.02 1006.37 1245.52C1006.79 1288.07 1041.4 1326.96 1041.77 1327.36L1046.02 1332.07L1039.68 1331.89C1022.41 1331.38 1006.16 1328.87 991.373 1324.43C948.512 1311.59 917.423 1282.81 896.602 1236.57L895.65 1245.16C880.171 1385.42 876.011 1423.11 802.535 1533.13L799.859 1537.14L797.823 1532.77C721.139 1368.44 708.389 1171.36 830.123 1107.49C758.648 1081.54 730.543 1046.6 728.219 1022.1C727.003 1009.31 732.496 998.724 743.688 992.301C764.665 980.26 807.804 982.413 867.79 1022.25C842.658 981.132 843.366 951.374 852.443 937.733C857.76 929.742 866.095 926.285 875.221 928.258C890.494 931.537 909.347 950.638 918.131 994.139C978.693 893.524 1124.79 871.275 1243.1 884.427C1384.06 900.094 1542.55 972.535 1578.87 1099.05L1580.12 1103.4L1511.86 1088.77C1606.84 1217.25 1590.35 1432.83 1510.72 1543.01L1509.31 1544.95ZM1443.88 1338.45L1443.97 1341.9C1444.01 1343.51 1448.72 1501.69 1507.75 1537.83C1586.24 1426.92 1601.03 1211.35 1503.13 1086.24L1499.69 1081.86L1506.32 1082.06L1572.35 1096.19C1534.36 974.779 1380.03 905.101 1242.5 889.816C1123.45 876.581 976.003 899.42 919.177 1003.2L915.407 1010.09L914.123 1002.34C906.496 956.283 887.79 936.503 874.084 933.559C867.121 932.072 861.042 934.606 856.96 940.737C847.99 954.219 848.606 985.896 879.865 1030.81L888.903 1043.8L876.056 1034.56C812.125 988.594 766.232 985.598 746.388 997.004C737.15 1002.31 732.614 1011.04 733.615 1021.59C735.749 1044.01 764.343 1079.17 837.931 1104.5L844.22 1106.67L838.209 1109.52C714.649 1168.1 725.792 1362.54 800.709 1526.09C870.865 1420.26 875.084 1382.05 890.26 1244.57L893.546 1214.93L897.565 1224.97C917.668 1275.2 948.864 1306.04 992.931 1319.23C1005.51 1323.01 1019.21 1325.35 1033.73 1326.2C1023.69 1313.58 998.693 1278.05 1001.11 1239.6L1001.45 1234.16L1005.58 1237.72C1134.36 1348.66 1280.69 1382.86 1440.54 1339.36L1443.88 1338.45Z" fill="#000072"/>
<g opacity="0.3">
<path d="M876.934 1198.71C883.422 1211.23 889.341 1225.34 893.261 1242.07C877.467 1385.18 873.856 1421.42 800.282 1531.63C791.667 1513.14 783.836 1494.21 776.961 1475.02C837.373 1381.31 844.437 1328.38 858.393 1202.12C859.466 1192.41 872.441 1190.04 876.934 1198.71Z" fill="#000072"/>
</g>
<g opacity="0.55">
<path d="M848.882 1013.78C753.075 973.188 718.398 1043.37 811.725 1097.23C677.021 1038.5 725.055 942.863 848.882 1013.78Z" fill="white"/>
</g>
<g opacity="0.55">
<path d="M834.002 1108.59C834.091 1108.63 834.18 1108.67 834.271 1108.71C846.332 1114.04 848.882 1129.87 838.73 1138.29C752.045 1210.16 755.341 1371.88 812.553 1512.88C808.724 1518.88 804.634 1525.15 800.283 1531.63C724.751 1369.77 710.349 1170.5 834.002 1108.59Z" fill="white"/>
</g>
<g opacity="0.55">
<path d="M871.679 1030.62L871.386 1030.46C820.828 952.62 866.829 907.795 897.546 943.69C880.58 946.194 870.505 972.433 889.346 1013.95C894.344 1024.96 882.292 1036.42 871.679 1030.62Z" fill="white"/>
</g>
<g opacity="0.55">
<path d="M1480.24 982.325C1396.88 943.863 1285.23 918.149 1183.9 917.671C1168.28 947.649 1115.64 946.169 1093.49 924.85C1036.49 935.075 988.242 956.655 958.134 992.637C949.519 1002.95 932.681 1002.25 925.894 990.636C925.502 990.027 925.154 989.374 924.85 988.635C1019.26 868.244 1337.75 858.324 1480.24 982.325Z" fill="white"/>
</g>
<path d="M1508.51 1554.47C1506.37 1554.47 1504.21 1553.94 1502.22 1552.85C1444.66 1521.09 1431.8 1403.82 1428.96 1358.61C1280.35 1394.65 1143.38 1365.1 1021.05 1270.68C1029.89 1298.36 1049.2 1320.16 1049.46 1320.45C1052.95 1324.34 1053.79 1329.94 1051.59 1334.67C1049.44 1339.29 1044.82 1342.23 1039.76 1342.23C1039.63 1342.23 1039.49 1342.23 1039.36 1342.22C979.425 1340.38 933.82 1316.19 903.283 1270.16C889.499 1393.25 881.647 1433.29 811.135 1538.88C808.518 1542.79 804.031 1544.99 799.289 1544.64C794.587 1544.28 790.446 1541.42 788.454 1537.15C713.63 1376.81 699.196 1185.58 807.097 1109.46C745.383 1082.65 720.315 1048.22 717.922 1023.08C716.325 1006.26 723.84 991.769 738.542 983.331C758.293 971.983 794.597 971.153 843.317 995.921C832.57 966.688 835.382 944.705 843.835 932.002C851.52 920.462 864.084 915.281 877.395 918.145C896.565 922.264 912.473 940.945 922.312 969.817C991.331 881.187 1130.42 861.509 1244.24 874.148C1388.64 890.195 1551.18 965.081 1588.81 1096.2C1590.08 1100.61 1588.94 1105.35 1585.81 1108.71C1582.68 1112.06 1578.03 1113.52 1573.53 1112.56L1534.7 1104.23C1570.03 1162.19 1588.64 1236.51 1587.58 1317.29C1586.4 1406 1561.44 1490.48 1519.1 1549.06C1516.57 1552.57 1512.59 1554.47 1508.51 1554.47ZM1441.25 1328.92C1444.03 1328.92 1446.77 1329.81 1449.05 1331.5C1452.26 1333.89 1454.2 1337.63 1454.3 1341.64C1455.35 1382.19 1466.68 1487.58 1505.28 1523.03C1576.39 1412.84 1587.64 1211.01 1494.98 1092.62C1491.59 1088.29 1491.28 1082.31 1494.2 1077.65C1497.11 1072.99 1502.61 1070.66 1508 1071.81L1556.18 1082.14C1510.94 975.725 1368.84 914.265 1241.36 900.095C1095.93 883.94 973.041 926.357 928.25 1008.17C925.569 1013.06 920.096 1015.71 914.612 1014.77C909.124 1013.84 904.832 1009.53 903.924 1004.04C896.658 960.164 879.808 945.367 871.917 943.672C869.979 943.255 867.708 943.252 865.569 946.467C860.193 954.548 858.035 981.34 888.352 1024.91C891.985 1030.13 891.326 1037.2 886.799 1041.66C882.258 1046.12 875.173 1046.66 870.017 1042.96C813.923 1002.62 770.09 995.322 751.536 1005.97C745.784 1009.27 743.289 1014.06 743.914 1020.61C745.896 1041.5 776.78 1072.52 841.297 1094.73C846.317 1096.45 849.788 1101.04 850.081 1106.34C850.374 1111.64 847.435 1116.59 842.64 1118.86C774.373 1151.23 757.606 1225.01 755.565 1281.2C753.143 1347.82 770.125 1428.06 802.479 1504.46C861.292 1412.77 865.462 1375 879.984 1243.44L882.074 1224.53C882.738 1218.58 887.362 1213.85 893.295 1213.04C899.242 1212.23 904.945 1215.58 907.167 1221.13C928.183 1273.69 962.684 1304.03 1012.21 1313.22C1000.99 1294.69 988.983 1267.69 990.79 1238.95C991.103 1234.01 994.184 1229.66 998.754 1227.74C1003.32 1225.82 1008.58 1226.64 1012.34 1229.88C1138.35 1338.44 1281.49 1371.92 1437.83 1329.38C1438.96 1329.07 1440.11 1328.92 1441.25 1328.92Z" fill="#000072"/>
<path d="M1441.25 1355.03C1435.49 1355.03 1430.22 1351.19 1428.66 1345.36C1426.78 1338.4 1430.91 1331.24 1437.87 1329.37C1454.08 1325.01 1470.47 1319.77 1486.59 1313.81C1493.35 1311.31 1500.86 1314.76 1503.36 1321.52C1505.86 1328.28 1502.41 1335.79 1495.65 1338.29C1478.79 1344.53 1461.63 1350.01 1444.65 1354.58C1443.51 1354.88 1442.37 1355.03 1441.25 1355.03Z" fill="#000072"/>
<g opacity="0.3">
<path d="M1508.52 1541.42C1445.43 1506.61 1441.26 1341.97 1441.26 1341.97C1291.93 1382.61 1140.83 1357.81 1003.82 1239.77C1000.9 1286.15 1039.76 1329.18 1039.76 1329.18C1022.13 1328.66 1006.34 1326.09 992.157 1321.83C920.715 1204.09 951.128 1176.33 1053.85 1212.53C1338.92 1304.51 1546.46 1318.91 1505.26 1084.57C1603.15 1209.66 1590.97 1427.34 1508.52 1541.42Z" fill="#000072"/>
</g>
<g opacity="0.2">
<path d="M1436.15 1193.35C1436.15 1213.13 1397.44 1229.16 1349.68 1229.16C1301.93 1229.16 1263.21 1213.13 1263.21 1193.35C1263.21 1173.58 1301.93 1173.07 1349.68 1173.07C1397.44 1173.07 1436.15 1173.58 1436.15 1193.35Z" fill="#FEFEFE"/>
</g>
<path d="M1200.56 1772.99C1200.56 1772.99 1181.84 1784.95 1133.05 1784.95C1122.46 1785.68 1092.17 1784.02 1053.89 1749.07C1053.89 1749.07 1071.58 1800.04 1131.91 1800.04C1131.91 1800.04 1166.24 1803.16 1200.56 1772.99Z" fill="#000072"/>
<path d="M923.537 1546.48C927.636 1533.16 937.443 1522.09 949.528 1514.55C961.676 1507.02 976.235 1503.17 990.671 1503.32C1005.12 1503.42 1019.48 1507.57 1031.49 1515.05C1043.45 1522.56 1053.27 1533.33 1057.85 1546.48C1044.72 1541.97 1033.54 1538.36 1022.5 1536.04C1011.54 1533.67 1000.96 1532.5 990.405 1532.36C979.846 1532.25 969.309 1533.18 958.442 1535.49C947.502 1537.75 936.452 1541.44 923.537 1546.48Z" fill="#000072"/>
<path d="M1391.34 1546.48C1378.42 1541.44 1367.37 1537.75 1356.43 1535.49C1345.56 1533.18 1335.03 1532.25 1324.47 1532.36C1313.91 1532.5 1303.34 1533.67 1292.37 1536.04C1281.33 1538.36 1270.15 1541.97 1257.02 1546.48C1261.6 1533.33 1271.42 1522.56 1283.38 1515.05C1295.4 1507.57 1309.75 1503.42 1324.2 1503.32C1338.64 1503.17 1353.2 1507.02 1365.35 1514.55C1377.43 1522.09 1387.24 1533.16 1391.34 1546.48Z" fill="#000072"/>
<path d="M1003.82 1685.18C1028.6 1685.18 1048.69 1658.68 1048.69 1625.99C1048.69 1593.3 1028.6 1566.8 1003.82 1566.8C979.037 1566.8 958.947 1593.3 958.947 1625.99C958.947 1658.68 979.037 1685.18 1003.82 1685.18Z" fill="#000072"/>
<path d="M1015.28 1632.14C1022.77 1632.14 1028.83 1623.24 1028.83 1612.26C1028.83 1601.28 1022.77 1592.38 1015.28 1592.38C1007.79 1592.38 1001.72 1601.28 1001.72 1612.26C1001.72 1623.24 1007.79 1632.14 1015.28 1632.14Z" fill="white"/>
<path d="M1015.28 1634.85C1006.15 1634.85 999.01 1624.92 999.01 1612.26C999.01 1599.59 1006.15 1589.67 1015.28 1589.67C1024.4 1589.67 1031.54 1599.59 1031.54 1612.26C1031.54 1624.92 1024.4 1634.85 1015.28 1634.85ZM1015.28 1595.09C1009.4 1595.09 1004.43 1602.95 1004.43 1612.26C1004.43 1621.56 1009.4 1629.42 1015.28 1629.42C1021.16 1629.42 1026.12 1621.56 1026.12 1612.26C1026.12 1602.95 1021.16 1595.09 1015.28 1595.09Z" fill="#000072"/>
<path d="M1314.07 1685.18C1338.85 1685.18 1358.94 1658.68 1358.94 1625.99C1358.94 1593.3 1338.85 1566.8 1314.07 1566.8C1289.29 1566.8 1269.2 1593.3 1269.2 1625.99C1269.2 1658.68 1289.29 1685.18 1314.07 1685.18Z" fill="#000072"/>
<path d="M1302.61 1632.14C1310.09 1632.14 1316.16 1623.24 1316.16 1612.26C1316.16 1601.28 1310.09 1592.38 1302.61 1592.38C1295.12 1592.38 1289.05 1601.28 1289.05 1612.26C1289.05 1623.24 1295.12 1632.14 1302.61 1632.14Z" fill="white"/>
<path d="M1302.61 1634.85C1293.48 1634.85 1286.34 1624.92 1286.34 1612.26C1286.34 1599.59 1293.48 1589.67 1302.61 1589.67C1311.73 1589.67 1318.87 1599.59 1318.87 1612.26C1318.87 1624.92 1311.73 1634.85 1302.61 1634.85ZM1302.61 1595.09C1296.73 1595.09 1291.76 1602.95 1291.76 1612.26C1291.76 1621.56 1296.73 1629.42 1302.61 1629.42C1308.49 1629.42 1313.45 1621.56 1313.45 1612.26C1313.45 1602.95 1308.49 1595.09 1302.61 1595.09Z" fill="#000072"/>
<path d="M1810.07 2679.12C1803.11 2713.53 1784.49 2743.14 1758.82 2764.16C1733.15 2785.13 1700.42 2797.51 1665.29 2797.51H667.867C597.616 2797.51 537.058 2747.99 523.094 2679.12H1810.07Z" fill="#C6D3E3"/>
<path d="M1665.3 2800.22H667.868C596.608 2800.22 534.601 2749.52 520.436 2679.67L519.777 2676.41H1813.39L1812.73 2679.66C1805.87 2713.56 1787.34 2744.31 1760.54 2766.25C1733.72 2788.15 1699.9 2800.22 1665.3 2800.22ZM526.447 2681.84C541.34 2747.49 600.285 2794.79 667.868 2794.79H1665.3C1698.65 2794.79 1731.26 2783.17 1757.11 2762.05C1782.08 2741.61 1799.61 2713.22 1806.72 2681.84H526.447Z" fill="#000072"/>
<path d="M1665.32 2813.77H667.878C590.188 2813.77 522.605 2758.51 507.175 2682.37C506.203 2677.59 507.434 2672.62 510.524 2668.84C513.615 2665.06 518.234 2662.87 523.117 2662.87H1810.08C1814.96 2662.87 1819.58 2665.06 1822.67 2668.84C1825.77 2672.62 1827 2677.59 1826.02 2682.37C1810.59 2758.51 1743 2813.77 1665.32 2813.77ZM544.617 2695.41C563.445 2746.15 612.454 2781.24 667.879 2781.24H1665.32C1720.74 2781.24 1769.75 2746.15 1788.58 2695.41H544.617Z" fill="#000072"/>
<g opacity="0.3">
<path d="M1810.07 2679.12C1803.11 2713.53 1784.49 2743.14 1758.82 2764.16C1733.15 2785.13 1700.42 2797.51 1665.3 2797.51H1048.35C1149.74 2792.71 1239.62 2764.73 1316.97 2711.37C1316.97 2711.37 1322.3 2698.37 1334.1 2679.13L1810.07 2679.12Z" fill="#000072"/>
</g>
<path d="M1809.69 2053.68L1757.62 2647.36C1754.45 2683.59 1724.13 2711.37 1687.75 2711.37H645.412C609.087 2711.37 578.76 2683.59 575.545 2647.36L523.529 2053.68C518.395 1995.38 564.365 1945.19 622.859 1945.19H1710.31C1729.45 1945.19 1747.26 1950.56 1762.37 1959.82C1793.47 1978.92 1813.14 2014.48 1809.69 2053.68Z" fill="#C6D3E3"/>
<path d="M1687.75 2714.08H645.413C607.405 2714.08 576.204 2685.5 572.845 2647.6L520.828 2053.92C518.313 2025.37 527.976 1996.88 547.337 1975.73C566.692 1954.6 594.222 1942.47 622.859 1942.47H1710.3C1729.24 1942.47 1747.73 1947.67 1763.79 1957.51C1797.2 1978.03 1815.82 2014.98 1812.38 2053.92V2053.92L1760.32 2647.6C1757.01 2685.5 1725.81 2714.08 1687.75 2714.08ZM622.859 1947.9C595.735 1947.9 569.666 1959.38 551.336 1979.4C532.996 1999.42 523.846 2026.41 526.229 2053.44L578.246 2647.12C581.356 2682.2 610.233 2708.66 645.414 2708.66H1687.75C1722.98 2708.66 1751.85 2682.2 1754.92 2647.12L1806.99 2053.44C1810.24 2016.56 1792.6 1981.57 1760.95 1962.13C1745.75 1952.82 1728.24 1947.9 1710.31 1947.9L622.859 1947.9Z" fill="#000072"/>
<g opacity="0.75">
<path d="M1793.08 1989.24C1780.37 1983.29 1766.16 1979.98 1751.09 1979.98H663.645C605.15 1979.98 559.18 2030.17 564.315 2088.47L616.331 2682.15C617.147 2691.41 619.738 2700.09 623.769 2707.92C597.665 2699.47 578.087 2676.05 575.543 2647.36L523.527 2053.68C518.393 1995.38 564.363 1945.19 622.857 1945.19H1710.31C1744.95 1945.19 1775.23 1962.8 1793.08 1989.24Z" fill="white"/>
</g>
<path d="M1687.77 2727.62H645.422C600.3 2727.62 563.298 2693.72 559.353 2648.77L507.297 2055.08C504.465 2022.76 515.407 1990.5 537.326 1966.57C559.245 1942.65 590.427 1928.93 622.873 1928.93H1710.32C1742.77 1928.93 1773.95 1942.65 1795.87 1966.57C1817.79 1990.5 1828.73 2022.76 1825.9 2055.08L1773.84 2648.77C1769.9 2693.72 1732.9 2727.62 1687.77 2727.62ZM622.873 1961.46C599.182 1961.46 577.321 1971.09 561.315 1988.55C545.314 2006.02 537.638 2028.64 539.709 2052.24L591.765 2645.93C594.226 2673.95 617.292 2695.08 645.422 2695.08H1687.77C1715.91 2695.08 1738.97 2673.95 1741.43 2645.93L1793.48 2052.24C1795.55 2028.64 1787.88 2006.02 1771.88 1988.55C1755.87 1971.09 1734.01 1961.46 1710.32 1961.46H622.873Z" fill="#000072"/>
<g opacity="0.3">
<path d="M1809.69 2053.68L1757.62 2647.36C1754.45 2683.59 1724.13 2711.37 1687.75 2711.37H747.525C1326.09 2665.83 1684.06 2432.09 1762.18 1959.77L1762.37 1959.82C1793.47 1978.92 1813.14 2014.48 1809.69 2053.68Z" fill="#000072"/>
</g>
<g opacity="0.3">
<path d="M785.859 2443.5L720.564 2449.61C703.633 2451.19 688.623 2438.75 687.038 2421.82L664.607 2182.14C663.022 2165.21 675.463 2150.2 692.395 2148.62L757.69 2142.5C774.621 2140.92 789.631 2153.36 791.216 2170.29L813.647 2409.97C815.231 2426.9 802.79 2441.91 785.859 2443.5Z" fill="white"/>
</g>
</svg>
